<svg id="Layer_1" data-name="Layer 1" xmlns="http://www.w3.org/2000/svg" viewBox="0 0 479.7 476.55"><defs><style>.cls-1{fill:#fff;}</style></defs><path class="cls-1" d="M273.25,333.45V123.16c0-9.75,2-11.77,11.68-11.77h71.48c8.72,0,11,2.29,11,10.92V332l2.35,1.62c.85-1.64,1.36-3.6,2.6-4.85q19.13-19.39,38.47-38.58c5.31-5.29,8.81-5.37,14-.19q26.73,26.64,53.37,53.36c5,5,4.87,8.67-.52,14.06L334.57,500.58c-2.24,2.24-4.4,4.55-6.7,6.73-4.71,4.49-10.46,4.48-15,0Q237.8,432.25,162.74,357.17c-5.22-5.22-5.22-8.92-.11-14l52.67-52.63c5.62-5.61,9.12-5.59,14.72,0l38.52,38.51C269.72,330.14,270.93,331.24,273.25,333.45Z" transform="translate(-80.44 -82.68)"/><path class="cls-1" d="M320.13,559.21h-223c-10.16,0-16.84-6.11-16.69-15.13a14.91,14.91,0,0,1,13.1-14.68,50.22,50.22,0,0,1,6.49-.22H541c1.67,0,3.34,0,5,.09,8.59.75,14.45,7.3,14.13,15.72-.3,8.1-6.55,14.17-15,14.2-23.33.1-46.66,0-70,0Z" transform="translate(-80.44 -82.68)"/><path class="cls-1" d="M320.11,82.72h37.44c7,0,9.9,2.74,9.86,9-.05,7.49-2.53,10.18-9.67,10.19H283.35c-3.67,0-7.85-.26-8.81-4.07A22.47,22.47,0,0,1,275.09,86c.55-1.67,4.59-3,7.07-3.09C294.81,82.56,307.46,82.72,320.11,82.72Z" transform="translate(-80.44 -82.68)"/></svg>