<svg xmlns="http://www.w3.org/2000/svg" viewBox="0 0 16.54 12.4"><g id="Layer_2" data-name="Layer 2"><g id="Layer_1-2" data-name="Layer 1"><path d="M0,1.55.35,1,5.5,5.48.31,11.3,0,10.85Z"/><path d="M.9,12.16l5.36-6c.52.45,1,.87,1.51,1.31a.64.64,0,0,0,1,0c.47-.43,1-.85,1.5-1.31l5.36,6a7,7,0,0,1-1.23.23q-6.13,0-12.27,0A7.07,7.07,0,0,1,.9,12.16Z"/><path d="M8.27,6.56,1,.21A6.77,6.77,0,0,1,2.12,0H14.44a7,7,0,0,1,1.1.19Z"/><path d="M16.33,11.4,11,5.49,16.27.91a5.63,5.63,0,0,1,.26,1.16c0,2.76,0,5.51,0,8.27A6.51,6.51,0,0,1,16.33,11.4Z"/></g></g></svg>