<svg width="35" height="35" viewBox="0 0 35 35" fill="none" xmlns="http://www.w3.org/2000/svg">
<path fill-rule="evenodd" clip-rule="evenodd" d="M17.5087 9.93221e-07C13.3514 -0.00141641 9.32939 1.51426 6.16271 4.27566C2.99604 7.03706 0.891481 10.8639 0.225848 15.0709C-0.439784 19.278 0.376972 23.5906 2.52988 27.2366C4.6828 30.8827 8.03128 33.624 11.9758 34.9699C12.8453 35.1363 13.1699 34.5806 13.1699 34.1052C13.1699 33.6773 13.1554 32.2659 13.1467 30.7654C8.2776 31.85 7.2516 28.6498 7.2516 28.6498C6.45457 26.5699 5.30685 26.0231 5.30685 26.0231C3.71858 24.9089 5.42568 24.9326 5.42568 24.9326C7.18494 25.0604 8.1095 26.7808 8.1095 26.7808C9.67168 29.5234 12.2048 28.733 13.2018 28.2665C13.3612 27.1077 13.8133 26.3173 14.3148 25.8686C10.4397 25.4199 6.33864 23.8808 6.33864 17.0051C6.31263 15.2192 6.95938 13.4919 8.14428 12.1826C7.96169 11.7309 7.36174 9.9065 8.31238 7.42839C8.31238 7.42839 9.78182 6.94703 13.1265 9.26766C15.9963 8.46339 19.024 8.46339 21.8938 9.26766C25.221 6.95891 26.7021 7.42839 26.7021 7.42839C27.6527 9.90056 27.0557 11.725 26.8731 12.1826C28.0547 13.4911 28.6993 15.2161 28.6729 16.9991C28.6729 23.8927 24.5805 25.4081 20.6823 25.8538C21.3083 26.4094 21.8677 27.5029 21.8677 29.1757C21.8677 31.5766 21.8503 33.5109 21.8503 34.0993C21.8503 34.5777 22.1633 35.1363 23.0502 34.961C26.9891 33.61 30.3309 30.8671 32.4785 27.2224C34.6261 23.5777 35.4395 19.2688 34.7733 15.0658C34.1071 10.8629 32.0048 7.03973 28.842 4.27974C25.6792 1.51976 21.6621 0.00280686 17.5087 9.93221e-07Z" fill="#191717"/>
<path d="M6.63427 25.7617C6.59659 25.8508 6.46037 25.8775 6.34444 25.8181C6.22851 25.7587 6.14446 25.6369 6.18503 25.5477C6.22561 25.4586 6.36183 25.4318 6.47486 25.4913C6.5879 25.5507 6.67484 25.6725 6.63137 25.7617H6.63427Z" fill="#191717"/>
<path d="M7.34438 26.5729C7.26033 26.6531 7.09802 26.6145 6.98499 26.4897C6.93216 26.4459 6.89764 26.383 6.88848 26.314C6.87932 26.245 6.89622 26.175 6.93572 26.1183C7.02267 26.038 7.17917 26.0767 7.29511 26.2015C7.41104 26.3263 7.43133 26.4986 7.34438 26.5729Z" fill="#191717"/>
<path d="M8.03405 27.6069C7.92682 27.6841 7.74422 27.6069 7.64278 27.4524C7.54134 27.2979 7.53555 27.1018 7.64278 27.0245C7.75002 26.9473 7.93261 27.0245 8.03405 27.176C8.13549 27.3276 8.14129 27.5296 8.03405 27.6069Z" fill="#191717"/>
<path d="M8.99061 28.6052C8.95535 28.6314 8.91537 28.6501 8.87299 28.6602C8.83061 28.6703 8.78668 28.6717 8.74378 28.6642C8.70087 28.6568 8.65985 28.6406 8.62311 28.6167C8.58636 28.5928 8.55464 28.5616 8.52978 28.525C8.37617 28.3794 8.3327 28.1744 8.43124 28.0674C8.52978 27.9604 8.72107 27.9872 8.88337 28.1357C9.04568 28.2843 9.08046 28.4864 8.97902 28.5933L8.99061 28.6052Z" fill="#191717"/>
<path d="M10.2832 29.1845C10.2397 29.3241 10.0455 29.3895 9.84555 29.3301C9.64557 29.2706 9.51804 29.1042 9.55572 28.9616C9.5934 28.819 9.79338 28.7536 9.99337 28.816C10.1933 28.8784 10.3209 29.0418 10.2832 29.1845Z" fill="#191717"/>
<path d="M11.715 29.2914C11.715 29.44 11.5527 29.5618 11.344 29.5648C11.1353 29.5678 10.9672 29.4519 10.9643 29.3063C10.9614 29.1607 11.1266 29.0329 11.3382 29.03C11.5498 29.027 11.715 29.1458 11.715 29.2914Z" fill="#191717"/>
<path d="M13.0482 29.0597C13.0743 29.2053 12.9293 29.3569 12.7236 29.3925C12.5178 29.4282 12.3323 29.342 12.3062 29.1964C12.2801 29.0508 12.4279 28.8993 12.6308 28.8636C12.8337 28.828 13.0221 28.9141 13.0482 29.0597Z" fill="#191717"/>
</svg>
