<svg id="Layer_1" data-name="Layer 1" xmlns="http://www.w3.org/2000/svg" viewBox="0 0 16 16"><defs><style>.cls-1{fill:#fff;}</style></defs><g id="Layer_2" data-name="Layer 2"><g id="Layer_1-2" data-name="Layer 1-2"><path class="cls-1" d="M0,14.57V1.33A3.07,3.07,0,0,1,.31.7,1.58,1.58,0,0,1,1.68,0H14.46a1.55,1.55,0,0,1,.85.31A1.66,1.66,0,0,1,16,1.72V14.46a1.61,1.61,0,0,1-.81,1.3,3.61,3.61,0,0,1-.62.24H1.36a1.66,1.66,0,0,1-1.14-.82A4.44,4.44,0,0,1,0,14.57Zm6-.46H8.49c.19,0,.19,0,.19-.19V9.3a1.21,1.21,0,0,1,1.1-1.22,1.49,1.49,0,0,1,1.6,1.09,2.82,2.82,0,0,1,.09.71v4a.17.17,0,0,1,0,.1.08.08,0,0,0,.07.09h2.51c.09,0,.11,0,.1-.11V9a3.76,3.76,0,0,0-.27-1.33A3.33,3.33,0,0,0,13,6.47,1.86,1.86,0,0,0,12,6c-.22,0-.45-.05-.68-.06A3.14,3.14,0,0,0,9,6.83l-.29.28v-1c0-.12,0-.15-.15-.15H6.16C6,5.94,6,6,6,6.1v8Zm-.81-8.2H1.69v8.23h3.5Zm-1.74-4a1.7,1.7,0,0,0-1.24.53,1.34,1.34,0,0,0,.08,1.89h0a1.7,1.7,0,0,0,2.38-.1,1.36,1.36,0,0,0-.06-1.91l0,0a1.59,1.59,0,0,0-1.12-.43Z" transform="translate(0 0)"/></g></g></svg>