<svg xmlns="http://www.w3.org/2000/svg" viewBox="0 0 16 16"><g id="Layer_2" data-name="Layer 2"><g id="Layer_1-2" data-name="Layer 1"><path d="M0,14.57V1.43l0-.1A3.26,3.26,0,0,1,.31.7,1.58,1.58,0,0,1,1.68,0H14.46a1.55,1.55,0,0,1,.85.31A1.66,1.66,0,0,1,16,1.72V14.46a1.61,1.61,0,0,1-.81,1.3,4.19,4.19,0,0,1-.62.24H1.43l-.07,0a1.62,1.62,0,0,1-1.14-.82A3.77,3.77,0,0,1,0,14.57Zm6-.46H8.49c.19,0,.19,0,.19-.19,0-1.54,0-3.08,0-4.62A1.21,1.21,0,0,1,9.78,8.08a1.48,1.48,0,0,1,1.6,1.09,2.82,2.82,0,0,1,.09.71c0,1.34,0,2.69,0,4a.33.33,0,0,1,0,.1.08.08,0,0,0,.09.09h2.49c.09,0,.11,0,.1-.11v-.27c0-1.56,0-3.13,0-4.7a3.8,3.8,0,0,0-.27-1.33A3.44,3.44,0,0,0,13,6.47a1.84,1.84,0,0,0-1-.49c-.22,0-.45-.05-.68-.06A3.15,3.15,0,0,0,9,6.83l-.29.28v-1c0-.12,0-.15-.15-.15H6.16C6,5.94,6,6,6,6.1Q6,10,6,13.9Zm-.81-8.2H1.69v8.23h3.5Zm-1.74-4a1.71,1.71,0,0,0-1.24.53A1.34,1.34,0,0,0,2.3,4.34a1.7,1.7,0,0,0,2.38-.1,1.35,1.35,0,0,0-.11-1.95A1.59,1.59,0,0,0,3.45,1.86Z"/></g></g></svg>