<svg width="117" height="18" viewBox="0 0 117 18" fill="none" xmlns="http://www.w3.org/2000/svg">
<path d="M0.764219 0.592H3.35622V2.32H3.42822C3.63622 2.016 3.86022 1.736 4.10022 1.48C4.34022 1.224 4.60422 1.008 4.89222 0.831999C5.19622 0.656 5.54022 0.52 5.92422 0.423999C6.30822 0.311999 6.74822 0.256 7.24422 0.256C7.99622 0.256 8.69222 0.423999 9.33222 0.759999C9.98822 1.096 10.4522 1.616 10.7242 2.32C11.1882 1.68 11.7242 1.176 12.3322 0.808C12.9402 0.44 13.7002 0.256 14.6122 0.256C15.9242 0.256 16.9402 0.575999 17.6602 1.216C18.3962 1.856 18.7642 2.928 18.7642 4.432V13H16.0282V5.752C16.0282 5.256 16.0122 4.808 15.9802 4.408C15.9482 3.992 15.8522 3.64 15.6922 3.352C15.5482 3.048 15.3242 2.816 15.0202 2.656C14.7162 2.496 14.3002 2.416 13.7722 2.416C12.8442 2.416 12.1722 2.704 11.7562 3.28C11.3402 3.856 11.1322 4.672 11.1322 5.728V13H8.39622V5.032C8.39622 4.168 8.23622 3.52 7.91622 3.088C7.61222 2.64 7.04422 2.416 6.21222 2.416C5.86022 2.416 5.51622 2.488 5.18022 2.632C4.86022 2.776 4.57222 2.984 4.31622 3.256C4.07622 3.528 3.87622 3.864 3.71622 4.264C3.57222 4.664 3.50022 5.12 3.50022 5.632V13H0.764219V0.592ZM27.335 13.336C26.343 13.336 25.455 13.176 24.671 12.856C23.903 12.52 23.247 12.064 22.703 11.488C22.175 10.912 21.767 10.224 21.479 9.424C21.207 8.624 21.071 7.744 21.071 6.784C21.071 5.84 21.207 4.968 21.479 4.168C21.767 3.368 22.175 2.68 22.703 2.104C23.247 1.528 23.903 1.08 24.671 0.759999C25.455 0.423999 26.343 0.256 27.335 0.256C28.327 0.256 29.207 0.423999 29.975 0.759999C30.759 1.08 31.415 1.528 31.943 2.104C32.487 2.68 32.895 3.368 33.167 4.168C33.455 4.968 33.599 5.84 33.599 6.784C33.599 7.744 33.455 8.624 33.167 9.424C32.895 10.224 32.487 10.912 31.943 11.488C31.415 12.064 30.759 12.52 29.975 12.856C29.207 13.176 28.327 13.336 27.335 13.336ZM27.335 11.176C27.943 11.176 28.471 11.048 28.919 10.792C29.367 10.536 29.735 10.2 30.023 9.784C30.311 9.368 30.519 8.904 30.647 8.392C30.791 7.864 30.863 7.328 30.863 6.784C30.863 6.256 30.791 5.728 30.647 5.2C30.519 4.672 30.311 4.208 30.023 3.808C29.735 3.392 29.367 3.056 28.919 2.8C28.471 2.544 27.943 2.416 27.335 2.416C26.727 2.416 26.199 2.544 25.751 2.8C25.303 3.056 24.935 3.392 24.647 3.808C24.359 4.208 24.143 4.672 23.999 5.2C23.871 5.728 23.807 6.256 23.807 6.784C23.807 7.328 23.871 7.864 23.999 8.392C24.143 8.904 24.359 9.368 24.647 9.784C24.935 10.2 25.303 10.536 25.751 10.792C26.199 11.048 26.727 11.176 27.335 11.176ZM35.8736 0.592H38.4656V2.416L38.5136 2.464C38.9296 1.776 39.4736 1.24 40.1456 0.855999C40.8176 0.455999 41.5616 0.256 42.3776 0.256C43.7376 0.256 44.8096 0.608 45.5936 1.312C46.3776 2.016 46.7696 3.072 46.7696 4.48V13H44.0336V5.2C44.0016 4.224 43.7936 3.52 43.4096 3.088C43.0256 2.64 42.4256 2.416 41.6096 2.416C41.1456 2.416 40.7296 2.504 40.3616 2.68C39.9936 2.84 39.6816 3.072 39.4256 3.376C39.1696 3.664 38.9696 4.008 38.8256 4.408C38.6816 4.808 38.6096 5.232 38.6096 5.68V13H35.8736V0.592ZM61.1268 12.352C61.1268 14.224 60.5988 15.616 59.5428 16.528C58.5028 17.456 56.9988 17.92 55.0308 17.92C54.4068 17.92 53.7748 17.856 53.1348 17.728C52.5108 17.6 51.9348 17.384 51.4068 17.08C50.8948 16.776 50.4628 16.376 50.1108 15.88C49.7588 15.384 49.5508 14.776 49.4868 14.056H52.2228C52.3028 14.44 52.4388 14.752 52.6308 14.992C52.8228 15.232 53.0468 15.416 53.3028 15.544C53.5748 15.688 53.8708 15.776 54.1908 15.808C54.5108 15.856 54.8468 15.88 55.1988 15.88C56.3028 15.88 57.1108 15.608 57.6228 15.064C58.1348 14.52 58.3908 13.736 58.3908 12.712V10.816H58.3428C57.9588 11.504 57.4308 12.04 56.7588 12.424C56.1028 12.808 55.3908 13 54.6228 13C53.6308 13 52.7828 12.832 52.0788 12.496C51.3908 12.144 50.8148 11.672 50.3508 11.08C49.9028 10.472 49.5748 9.776 49.3668 8.992C49.1588 8.208 49.0548 7.368 49.0548 6.472C49.0548 5.64 49.1828 4.848 49.4388 4.096C49.6948 3.344 50.0628 2.688 50.5428 2.128C51.0228 1.552 51.6068 1.096 52.2948 0.759999C52.9988 0.423999 53.7908 0.256 54.6708 0.256C55.4548 0.256 56.1748 0.423999 56.8308 0.759999C57.4868 1.08 57.9908 1.592 58.3428 2.296H58.3908V0.592H61.1268V12.352ZM55.0548 10.84C55.6628 10.84 56.1748 10.72 56.5908 10.48C57.0228 10.224 57.3668 9.896 57.6228 9.496C57.8948 9.08 58.0868 8.616 58.1988 8.104C58.3268 7.576 58.3908 7.048 58.3908 6.52C58.3908 5.992 58.3268 5.48 58.1988 4.984C58.0708 4.488 57.8708 4.048 57.5988 3.664C57.3428 3.28 56.9988 2.976 56.5668 2.752C56.1508 2.528 55.6468 2.416 55.0548 2.416C54.4468 2.416 53.9348 2.544 53.5188 2.8C53.1028 3.056 52.7668 3.392 52.5108 3.808C52.2548 4.208 52.0708 4.672 51.9588 5.2C51.8468 5.712 51.7908 6.224 51.7908 6.736C51.7908 7.248 51.8548 7.752 51.9828 8.248C52.1108 8.728 52.3028 9.16 52.5588 9.544C52.8308 9.928 53.1668 10.24 53.5668 10.48C53.9828 10.72 54.4788 10.84 55.0548 10.84ZM69.5694 13.336C68.5774 13.336 67.6894 13.176 66.9054 12.856C66.1374 12.52 65.4814 12.064 64.9374 11.488C64.4094 10.912 64.0014 10.224 63.7134 9.424C63.4414 8.624 63.3054 7.744 63.3054 6.784C63.3054 5.84 63.4414 4.968 63.7134 4.168C64.0014 3.368 64.4094 2.68 64.9374 2.104C65.4814 1.528 66.1374 1.08 66.9054 0.759999C67.6894 0.423999 68.5774 0.256 69.5694 0.256C70.5614 0.256 71.4414 0.423999 72.2094 0.759999C72.9934 1.08 73.6494 1.528 74.1774 2.104C74.7214 2.68 75.1294 3.368 75.4014 4.168C75.6894 4.968 75.8334 5.84 75.8334 6.784C75.8334 7.744 75.6894 8.624 75.4014 9.424C75.1294 10.224 74.7214 10.912 74.1774 11.488C73.6494 12.064 72.9934 12.52 72.2094 12.856C71.4414 13.176 70.5614 13.336 69.5694 13.336ZM69.5694 11.176C70.1774 11.176 70.7054 11.048 71.1534 10.792C71.6014 10.536 71.9694 10.2 72.2574 9.784C72.5454 9.368 72.7534 8.904 72.8814 8.392C73.0254 7.864 73.0974 7.328 73.0974 6.784C73.0974 6.256 73.0254 5.728 72.8814 5.2C72.7534 4.672 72.5454 4.208 72.2574 3.808C71.9694 3.392 71.6014 3.056 71.1534 2.8C70.7054 2.544 70.1774 2.416 69.5694 2.416C68.9614 2.416 68.4334 2.544 67.9854 2.8C67.5374 3.056 67.1694 3.392 66.8814 3.808C66.5934 4.208 66.3774 4.672 66.2334 5.2C66.1054 5.728 66.0414 6.256 66.0414 6.784C66.0414 7.328 66.1054 7.864 66.2334 8.392C66.3774 8.904 66.5934 9.368 66.8814 9.784C67.1694 10.2 67.5374 10.536 67.9854 10.792C68.4334 11.048 68.9614 11.176 69.5694 11.176ZM83.796 13.336C82.804 13.336 81.916 13.176 81.132 12.856C80.364 12.52 79.708 12.064 79.164 11.488C78.636 10.912 78.228 10.224 77.94 9.424C77.668 8.624 77.532 7.744 77.532 6.784C77.532 5.84 77.668 4.968 77.94 4.168C78.228 3.368 78.636 2.68 79.164 2.104C79.708 1.528 80.364 1.08 81.132 0.759999C81.916 0.423999 82.804 0.256 83.796 0.256C84.788 0.256 85.668 0.423999 86.436 0.759999C87.22 1.08 87.876 1.528 88.404 2.104C88.948 2.68 89.356 3.368 89.628 4.168C89.916 4.968 90.06 5.84 90.06 6.784C90.06 7.744 89.916 8.624 89.628 9.424C89.356 10.224 88.948 10.912 88.404 11.488C87.876 12.064 87.22 12.52 86.436 12.856C85.668 13.176 84.788 13.336 83.796 13.336ZM83.796 11.176C84.404 11.176 84.932 11.048 85.38 10.792C85.828 10.536 86.196 10.2 86.484 9.784C86.772 9.368 86.98 8.904 87.108 8.392C87.252 7.864 87.324 7.328 87.324 6.784C87.324 6.256 87.252 5.728 87.108 5.2C86.98 4.672 86.772 4.208 86.484 3.808C86.196 3.392 85.828 3.056 85.38 2.8C84.932 2.544 84.404 2.416 83.796 2.416C83.188 2.416 82.66 2.544 82.212 2.8C81.764 3.056 81.396 3.392 81.108 3.808C80.82 4.208 80.604 4.672 80.46 5.2C80.332 5.728 80.268 6.256 80.268 6.784C80.268 7.328 80.332 7.864 80.46 8.392C80.604 8.904 80.82 9.368 81.108 9.784C81.396 10.2 81.764 10.536 82.212 10.792C82.66 11.048 83.188 11.176 83.796 11.176ZM94.3985 9.016C94.4785 9.816 94.7825 10.376 95.3105 10.696C95.8385 11.016 96.4705 11.176 97.2065 11.176C97.4625 11.176 97.7505 11.16 98.0705 11.128C98.4065 11.08 98.7185 11 99.0065 10.888C99.2945 10.776 99.5265 10.616 99.7025 10.408C99.8945 10.184 99.9825 9.896 99.9665 9.544C99.9505 9.192 99.8225 8.904 99.5825 8.68C99.3425 8.456 99.0305 8.28 98.6465 8.152C98.2785 8.008 97.8545 7.888 97.3745 7.792C96.8945 7.696 96.4065 7.592 95.9105 7.48C95.3985 7.368 94.9025 7.232 94.4225 7.072C93.9585 6.912 93.5345 6.696 93.1505 6.424C92.7825 6.152 92.4865 5.808 92.2625 5.392C92.0385 4.96 91.9265 4.432 91.9265 3.808C91.9265 3.136 92.0865 2.576 92.4065 2.128C92.7425 1.664 93.1585 1.296 93.6545 1.024C94.1665 0.736 94.7265 0.535999 95.3345 0.423999C95.9585 0.311999 96.5505 0.256 97.1105 0.256C97.7505 0.256 98.3585 0.328 98.9345 0.472C99.5265 0.6 100.055 0.816 100.519 1.12C100.999 1.424 101.391 1.824 101.695 2.32C102.015 2.8 102.215 3.384 102.295 4.072H99.4385C99.3105 3.416 99.0065 2.976 98.5265 2.752C98.0625 2.528 97.5265 2.416 96.9185 2.416C96.7265 2.416 96.4945 2.432 96.2225 2.464C95.9665 2.496 95.7185 2.56 95.4785 2.656C95.2545 2.736 95.0625 2.864 94.9025 3.04C94.7425 3.2 94.6625 3.416 94.6625 3.688C94.6625 4.024 94.7745 4.296 94.9985 4.504C95.2385 4.712 95.5425 4.888 95.9105 5.032C96.2945 5.16 96.7265 5.272 97.2065 5.368C97.6865 5.464 98.1825 5.568 98.6945 5.68C99.1905 5.792 99.6785 5.928 100.159 6.088C100.639 6.248 101.063 6.464 101.431 6.736C101.815 7.008 102.119 7.352 102.343 7.768C102.583 8.184 102.703 8.696 102.703 9.304C102.703 10.04 102.535 10.664 102.199 11.176C101.863 11.688 101.423 12.104 100.879 12.424C100.351 12.744 99.7585 12.976 99.1025 13.12C98.4465 13.264 97.7985 13.336 97.1585 13.336C96.3745 13.336 95.6465 13.248 94.9745 13.072C94.3185 12.896 93.7425 12.632 93.2465 12.28C92.7665 11.912 92.3825 11.464 92.0945 10.936C91.8225 10.392 91.6785 9.752 91.6625 9.016H94.3985ZM113.3 5.704C113.268 5.272 113.172 4.856 113.012 4.456C112.868 4.056 112.66 3.712 112.388 3.424C112.132 3.12 111.812 2.88 111.428 2.704C111.06 2.512 110.644 2.416 110.18 2.416C109.7 2.416 109.26 2.504 108.86 2.68C108.476 2.84 108.14 3.072 107.852 3.376C107.58 3.664 107.356 4.008 107.18 4.408C107.02 4.808 106.932 5.24 106.916 5.704H113.3ZM106.916 7.504C106.916 7.984 106.98 8.448 107.108 8.896C107.252 9.344 107.46 9.736 107.732 10.072C108.004 10.408 108.348 10.68 108.764 10.888C109.18 11.08 109.676 11.176 110.252 11.176C111.052 11.176 111.692 11.008 112.172 10.672C112.668 10.32 113.036 9.8 113.276 9.112H115.868C115.724 9.784 115.476 10.384 115.124 10.912C114.772 11.44 114.348 11.888 113.852 12.256C113.356 12.608 112.796 12.872 112.172 13.048C111.564 13.24 110.924 13.336 110.252 13.336C109.276 13.336 108.412 13.176 107.66 12.856C106.908 12.536 106.268 12.088 105.74 11.512C105.228 10.936 104.836 10.248 104.564 9.448C104.308 8.648 104.18 7.768 104.18 6.808C104.18 5.928 104.316 5.096 104.588 4.312C104.876 3.512 105.276 2.816 105.788 2.224C106.316 1.616 106.948 1.136 107.684 0.784C108.42 0.432 109.252 0.256 110.18 0.256C111.156 0.256 112.028 0.464 112.796 0.88C113.58 1.28 114.228 1.816 114.74 2.488C115.252 3.16 115.62 3.936 115.844 4.816C116.084 5.68 116.148 6.576 116.036 7.504H106.916Z" fill="#880000"/>
</svg>
