<svg xmlns="http://www.w3.org/2000/svg" viewBox="0 0 15.88 15.88"><g id="Layer_2" data-name="Layer 2"><g id="Layer_1-2" data-name="Layer 1"><path d="M7.46,0h1L8.5,0c.41.06.82.11,1.21.19a7.18,7.18,0,0,1,2.35,1A7.89,7.89,0,0,1,15.8,6.89c0,.19,0,.38.08.57v1l0,.1c-.06.4-.1.8-.18,1.2a7.72,7.72,0,0,1-1.36,2.95,7.85,7.85,0,0,1-1.77,1.73,7.79,7.79,0,0,1-3,1.32,7.65,7.65,0,0,1-2.19.13,7.88,7.88,0,0,1-4.87-2.17,7.63,7.63,0,0,1-1.6-2.15A7.87,7.87,0,0,1,0,7.35,8.11,8.11,0,0,1,.61,4.88,8,8,0,0,1,3.93,1.09a7.76,7.76,0,0,1,3-1Zm.48,14.89A7,7,0,1,0,1,7.94,7,7,0,0,0,7.94,14.89Z"/><path d="M3.47,5.06a1,1,0,0,1,.35-.84,4.54,4.54,0,0,0,.38-.38A1.13,1.13,0,0,1,5.94,4a1.69,1.69,0,0,1,.26.58c.08.34.19.68.27,1a1.06,1.06,0,0,1-.3,1c-.11.12-.23.22-.33.34a.14.14,0,0,0,0,.14,4.42,4.42,0,0,0,2.8,3c.33.13.34.13.58-.13A1.36,1.36,0,0,1,10,9.4a1.77,1.77,0,0,1,.72.09l.88.25a1.15,1.15,0,0,1,.68,1.68,6,6,0,0,1-.64.7.88.88,0,0,1-.52.27,1.84,1.84,0,0,1-.47,0,7.67,7.67,0,0,1-2.82-.71A7.31,7.31,0,0,1,5.42,9.94,7.59,7.59,0,0,1,4.07,7.83,7.47,7.47,0,0,1,3.5,5.46Z"/></g></g></svg>