<svg xmlns="http://www.w3.org/2000/svg" viewBox="0 0 17.92 18.13"><defs><style>.cls-1{fill:#fff;}</style></defs><g id="Layer_2" data-name="Layer 2"><g id="Layer_1-2" data-name="Layer 1"><g id="Layer_2-2" data-name="Layer 2"><g id="Layer_1-2-2" data-name="Layer 1-2"><path class="cls-1" d="M9,.1V0a.36.36,0,0,0-.07.1Z"/><path class="cls-1" d="M8.87,18l.09.13L9.05,18Z"/><path class="cls-1" d="M6,6.81a14.05,14.05,0,0,0,.14,5.13H11.7a14.05,14.05,0,0,0,.14-5.13l-.12-.63H6.15A4.8,4.8,0,0,1,6,6.81Z"/><path class="cls-1" d="M5.4,6.73a2.54,2.54,0,0,1,.1-.55H.5A9.13,9.13,0,0,0,0,9.06a9.1,9.1,0,0,0,.47,2.88H5.52A14.72,14.72,0,0,1,5.4,6.73Z"/><path class="cls-1" d="M17.2,5.54A9,9,0,0,0,9.84.14a16.77,16.77,0,0,1,2.43,5.4Z"/><path class="cls-1" d="M6.38,12.79A16.27,16.27,0,0,0,8.87,18h.18a16.63,16.63,0,0,0,2.49-5.22,1.6,1.6,0,0,1,.05-.21H6.33A1.74,1.74,0,0,0,6.38,12.79Z"/><path class="cls-1" d="M9,.1H8.89A16.44,16.44,0,0,0,6.3,5.54h5.31A16.48,16.48,0,0,0,9,.1Z"/><path class="cls-1" d="M5.67,12.58H.72A9,9,0,0,0,8.05,18a17.29,17.29,0,0,1-2.28-5C5.73,12.85,5.7,12.71,5.67,12.58Z"/><path class="cls-1" d="M8.08.14A9,9,0,0,0,.72,5.54H5.64A16.79,16.79,0,0,1,8.08.14Z"/><path class="cls-1" d="M12.51,6.73a14.72,14.72,0,0,1-.12,5.21h5.05a8.88,8.88,0,0,0,0-5.76h-5A5.52,5.52,0,0,0,12.51,6.73Z"/><path class="cls-1" d="M12.15,13a17.05,17.05,0,0,1-2.29,5,9,9,0,0,0,7.34-5.39H12.25C12.22,12.71,12.18,12.85,12.15,13Z"/></g></g></g></g></svg>