<svg xmlns="http://www.w3.org/2000/svg" viewBox="0 0 17.92 18.14"><defs><style>.cls-1{fill:none;}</style></defs><g id="Layer_2" data-name="Layer 2"><g id="Layer_1-2" data-name="Layer 1"><path class="cls-1" d="M9,.1A.61.61,0,0,1,9,0a.61.61,0,0,0-.07.1H9Z"/><path class="cls-1" d="M8.87,18l.09.13L9.05,18H8.87Z"/><path d="M6,6.81a14.08,14.08,0,0,0,.14,5.13h5.56a14.08,14.08,0,0,0,.14-5.13l-.12-.63H6.15C6.11,6.39,6.07,6.6,6,6.81Z"/><path d="M5.4,6.73c0-.19.06-.37.1-.55h-5A9.1,9.1,0,0,0,0,9.06a9.2,9.2,0,0,0,.47,2.88H5.52A14.74,14.74,0,0,1,5.4,6.73Z"/><path d="M17.2,5.54A9,9,0,0,0,9.84.14a16.78,16.78,0,0,1,2.43,5.4Z"/><path d="M6.38,12.79A16.32,16.32,0,0,0,8.87,18h.18a16.53,16.53,0,0,0,2.49-5.22,1.6,1.6,0,0,1,.05-.21H6.33A1.6,1.6,0,0,0,6.38,12.79Z"/><path d="M9,.1H8.89A16.42,16.42,0,0,0,6.3,5.54h5.31A16.39,16.39,0,0,0,9,.1Z"/><path d="M5.67,12.58H.72A9,9,0,0,0,8.05,18a17.2,17.2,0,0,1-2.28-5C5.73,12.85,5.7,12.71,5.67,12.58Z"/><path d="M8.08.14A9,9,0,0,0,.72,5.54H5.64A16.81,16.81,0,0,1,8.08.14Z"/><path d="M12.51,6.73a14.74,14.74,0,0,1-.12,5.21h5.05a8.92,8.92,0,0,0,.48-2.88,8.83,8.83,0,0,0-.48-2.88h-5C12.45,6.36,12.48,6.54,12.51,6.73Z"/><path d="M12.15,13a17.17,17.17,0,0,1-2.29,5,9,9,0,0,0,7.34-5.39H12.25C12.22,12.71,12.18,12.85,12.15,13Z"/></g></g></svg>